<svg width="167" height="34" viewBox="0 0 167 34" fill="none" xmlns="http://www.w3.org/2000/svg">
<path fill-rule="evenodd" clip-rule="evenodd" d="M22.4067 0C20.7777 0 19.1703 0.35245 18.0377 0.815199C16.9063 0.35245 15.2989 0 13.6686 0C6.48572 0 0.000236511 6.76628 0.000236511 16.0504C0.000236511 26.1726 8.30054 34 18.0377 34C27.7748 34 36.0764 26.1726 36.0764 16.0504C36.0751 6.76628 29.5896 0 22.4067 0ZM18.0377 5.51242C19.4223 6.33269 21.2499 8.70982 21.2499 11.39C21.2499 13.3563 19.9479 14.9043 18.0377 14.9043C16.1274 14.9043 14.8255 13.3563 14.8255 11.39C14.8255 8.70982 16.6543 6.33269 18.0377 5.51242ZM18.0377 29.5779C10.5926 29.5779 4.43419 23.6129 4.43419 15.9617C4.43419 8.97733 9.4943 4.20404 13.4701 4.3828C11.5866 6.25282 10.445 8.97606 10.445 11.6144C10.445 16.1493 14.0581 19.329 18.0377 19.329C22.0173 19.329 25.6304 16.1493 25.6304 11.6144C25.6304 8.97606 24.4875 6.25282 22.6053 4.3828C26.5823 4.20531 31.6412 8.97733 31.6412 15.9617C31.6412 23.6129 25.4815 29.5779 18.0377 29.5779Z" fill="white"/>
<path d="M62.05 7.74609V11.4443H67.7108V25.3242H71.7197V11.4443H77.3805V7.74609H62.0513H62.05Z" fill="white"/>
<path d="M128.018 7.74609H117.927V11.4734H127.752C129.193 11.4734 129.756 12.1289 129.756 13.8125V14.4325H121.614C118.518 14.4325 116.978 15.9754 116.978 19.4619V20.2923C116.978 23.8776 118.575 25.3191 121.784 25.3191H133.724V13.7669C133.724 9.33972 132.255 7.74736 128.02 7.74736L128.018 7.74609ZM122.2 21.5652C121.593 21.5652 120.913 21.2571 120.913 19.7484C120.913 18.2397 121.585 17.9773 122.2 17.9773H129.754V21.5652H122.2Z" fill="white"/>
<path d="M161.295 7.74609H151.204V11.4734H161.029C162.471 11.4734 163.032 12.1289 163.032 13.8125C163.032 13.8214 163.034 14.2905 163.034 14.4325H154.891C151.796 14.4325 150.255 15.9754 150.255 19.4619V20.2923C150.255 23.8776 151.852 25.3191 155.06 25.3191H167.001V13.7669C167.001 9.33972 165.532 7.74736 161.295 7.74736V7.74609ZM155.478 21.5652C154.871 21.5652 154.191 21.2571 154.191 19.7484C154.191 18.2397 154.864 17.9773 155.478 17.9773H163.032V21.5652H155.478Z" fill="white"/>
<path d="M78.6529 7.74609V11.4443H84.3124V25.3242H88.3226V11.4443H93.9834V7.74609H78.6529Z" fill="white"/>
<path d="M134.529 7.74609V11.4443H140.188V25.3242H144.199V11.4443H149.858V7.74609H134.529Z" fill="white"/>
<path d="M115.423 19.1627V13.9038C115.423 9.29916 113.631 7.74609 109.586 7.74609H98.8551V25.3191H109.775C114.067 25.3191 115.423 23.1943 115.423 19.1627ZM111.33 19.24C111.33 20.9237 110.76 21.5791 109.319 21.5791H102.865V11.4887H109.319C110.76 11.4887 111.33 12.1441 111.33 13.8278V19.2413V19.24Z" fill="white"/>
<path d="M56.3966 21.1337C56.3114 20.9726 50.9547 10.5766 50.3006 9.55225C49.5446 8.36939 48.6258 7.54785 46.8644 7.54785C45.2278 7.54785 43.292 8.27177 43.292 12.1842V25.325H47.2436V14.3636C47.2436 13.5775 47.194 12.4112 47.1838 12.1766C47.1749 11.9839 47.1838 11.8013 47.2818 11.7443C47.3964 11.6796 47.5096 11.7849 47.586 11.9307C47.6624 12.0777 52.6283 21.8614 53.6833 23.5121C54.4393 24.6949 55.3581 25.5165 57.1208 25.5165C58.7561 25.5165 60.6931 24.7925 60.6931 20.8801V7.73929H56.7415V18.6995C56.7415 19.4868 56.7886 20.6519 56.7988 20.8864C56.8077 21.0791 56.8001 21.2617 56.7008 21.3188C56.5875 21.3847 56.4755 21.2782 56.3966 21.1324V21.1337Z" fill="white"/>
</svg>
